<?xml version="1.0" encoding="UTF-8" standalone="no"?>
<svg
   xmlns:dc="http://purl.org/dc/elements/1.1/"
   xmlns:cc="http://creativecommons.org/ns#"
   xmlns:rdf="http://www.w3.org/1999/02/22-rdf-syntax-ns#"
   xmlns="http://www.w3.org/2000/svg"
   xmlns:sodipodi="http://sodipodi.sourceforge.net/DTD/sodipodi-0.dtd"
   xmlns:inkscape="http://www.inkscape.org/namespaces/inkscape"
   width="735" height="811" viewBox="116 0 735 811"
   version="1.0"
   sodipodi:docname="Columbia University Shield.svg"
   inkscape:output_extension="org.inkscape.output.svg.inkscape">
  <metadata>
    <rdf:RDF>
      <cc:Work rdf:about="">
        <dc:format>image/svg+xml</dc:format>
        <dc:type rdf:resource="http://purl.org/dc/dcmitype/StillImage"/>
      </cc:Work>
    </rdf:RDF>
  </metadata>
  <path
     style="fill:#000000"
     d="M 464.73849,795.18399 C 286.11877,692.11721 149.06612,510.3263 127.00032,302.25951 C 118.98066,204.59951 125.52776,106.26524 125.93527,8.35613 C 364.05124,8.35613 602.16723,8.35613 840.28321,8.35613 C 839.37871,157.99682 859.97222,313.29354 800.72794,455.4541 C 743.78367,606.26745 622.87572,726.68772 484.10784,804.83177 L 477.70841,802.27005 L 464.73848,795.18397 L 464.73849,795.18399 z M 698.83606,610.99868 C 628.54148,537.96866 556.32567,466.81019 484.98565,394.80195 C 414.07429,467.20247 342.61527,539.07349 272.36388,612.11501 C 329.49493,685.26025 402.63907,747.0047 484.83519,790.27804 C 567.10706,748.00544 636.16252,679.7815 698.83606,610.99868 z M 425.61516,445.52809 C 445.40533,425.39163 465.1955,405.25516 484.98565,385.1187 C 558.46523,457.5174 630.35605,531.51164 703.49412,604.24141 C 719.57175,567.21358 757.29826,524.97172 774.61649,489.19214 C 682.39032,396.40599 574.45413,288.33004 481.81705,195.95357 C 384.46414,293.30648 287.11124,390.65938 189.75834,488.01227 C 210.85853,527.32231 243.21901,580.89753 266.25649,607.60016 C 318.71437,554.24771 373.1691,498.89215 425.61516,445.52809 z M 827.65201,20.48815 C 602.83813,20.48815 360.52425,20.98815 135.71035,20.98815 C 137.1525,166.38463 127.891,343.16879 187.17594,480.90916 C 411.81581,257.46339 411.96786,256.99405 481.88305,187.09919 C 580.41658,285.80497 678.58698,384.87556 777.55372,483.14709 C 843.55493,333.7986 833.28599,180.3238 827.65201,20.48815 z"
     id="path2489"
     sodipodi:nodetypes="cccccccccccccccccccccccccccc" />
  <path
     style="fill:#a2def9;fill-opacity:1;fill-rule:nonzero;stroke:#a2def9;stroke-width:2;stroke-opacity:1"
     d="M 191.15726,488.96516 L 480.6984,196.10554 C 583.4498,297.73031 684.897,398.80566 774.8026,490.07244 C 754.7931,530.87713 732.29153,566.18712 704.286,603.49446 C 632.77842,532.36547 556.62394,458.80553 484.1786,385.67232 C 412.76718,460.02536 338.59877,534.99035 267.31488,608.4206 C 240.92901,574.37101 212.54313,530.28364 191.15726,488.96516 z"
     id="path2492"
     sodipodi:nodetypes="ccccccc" />
  <path
     style="fill:#0057a8;fill-opacity:1;fill-rule:nonzero;stroke:#0057a8;stroke-width:2;stroke-opacity:1"
     d="M 481.7246,186.4502 C 395.8458,272.22334 256.22259,412.2676 186.88958,480.9206 C 180.28865,462.65162 180.31095,462.09511 171.63932,440.2875 C 157.28611,404.19173 144.75034,350.03644 139.72538,302.4206 C 136.3362,270.30516 134.62244,193.6477 135.24302,101.9206 L 135.78764,21.4206 L 473.8072,21.4206 C 756.3246,21.4206 822.4092,19.8728 827.918,22.17458 C 828.4546,79.819311 832.25948,171.69828 832.1092,234.9151 C 827.8152,324.81586 815.8458,383.96344 791.361,451.4206 C 785.94979,466.32882 779.1418,482.07348 778.4162,482.87144 L 481.7246,186.4502 z"
     id="path3264"
     sodipodi:nodetypes="ccsscccccscc" />
  <path
     style="fill:#0057a8;fill-opacity:1;fill-rule:nonzero;stroke:#0057a8;stroke-width:2;stroke-opacity:1"
     d="M 483.6882,790.77008 C 410.71012,748.30825 327.81429,691.12709 272.5404,613.11438 C 375.917,507.27774 376.2082,506.9206 484.618,395.4206 L 699.3632,609.14728 C 657.6638,657.94864 550.01733,764.59631 483.6882,790.77008 z"
     id="path3268"
     sodipodi:nodetypes="ccccc" />
</svg>