<?xml version="1.0" encoding="UTF-8" standalone="no"?>
<!-- Created with Inkscape (http://www.inkscape.org/) -->
<svg
   xmlns:dc="http://purl.org/dc/elements/1.1/"
   xmlns:cc="http://creativecommons.org/ns#"
   xmlns:rdf="http://www.w3.org/1999/02/22-rdf-syntax-ns#"
   xmlns:svg="http://www.w3.org/2000/svg"
   xmlns="http://www.w3.org/2000/svg"
   xmlns:sodipodi="http://sodipodi.sourceforge.net/DTD/sodipodi-0.dtd"
   xmlns:inkscape="http://www.inkscape.org/namespaces/inkscape"
   id="svg3374"
   sodipodi:version="0.32"
   inkscape:version="0.46"
   width="312"
   height="348"
   version="1.0"
   sodipodi:docname="Princeton University Shield.svg"
   inkscape:output_extension="org.inkscape.output.svg.inkscape">
  <metadata
     id="metadata3379">
    <rdf:RDF>
      <cc:Work
         rdf:about="">
        <dc:format>image/svg+xml</dc:format>
        <dc:type
           rdf:resource="http://purl.org/dc/dcmitype/StillImage" />
      </cc:Work>
    </rdf:RDF>
  </metadata>
  <defs
     id="defs3377">
    <inkscape:perspective
       sodipodi:type="inkscape:persp3d"
       inkscape:vp_x="0 : 526.18109 : 1"
       inkscape:vp_y="0 : 1000 : 0"
       inkscape:vp_z="744.09448 : 526.18109 : 1"
       inkscape:persp3d-origin="372.04724 : 350.78739 : 1"
       id="perspective3381" />
  </defs>
  <sodipodi:namedview
     inkscape:window-height="850"
     inkscape:window-width="1440"
     inkscape:pageshadow="2"
     inkscape:pageopacity="0.0"
     guidetolerance="10.0"
     gridtolerance="10.0"
     objecttolerance="10.0"
     borderopacity="1.0"
     bordercolor="#666666"
     pagecolor="#ffffff"
     id="base"
     showgrid="false"
     inkscape:zoom="1.6321839"
     inkscape:cx="240.61713"
     inkscape:cy="196.362"
     inkscape:window-x="-4"
     inkscape:window-y="-3"
     inkscape:current-layer="svg3374" />
  <path
     style="fill:#000000"
     d="M 145.25353,343.60459 C 125.94233,330.08317 103.91726,308.47244 88.732744,288.14704 C 55.484757,243.64265 36.093244,191.46421 30.026402,130.18079 C 28.677316,116.55316 29.229841,56.864459 30.777693,49.019657 L 31.468135,45.520369 L 39.126052,49.239126 C 54.367088,56.640316 74.332019,59.139451 89.185502,55.505376 C 110.6048,50.264901 131.61647,33.86804 147.13978,10.279623 C 150.50375,5.1679067 153.64973,0.9855984 154.13085,0.9855984 C 154.61197,0.9855984 156.19132,2.9398151 157.64052,5.3282984 C 162.69036,13.65109 173.4767,27.086586 180.23512,33.472189 C 199.83482,51.990689 222.27695,59.989935 245.03717,56.570142 C 254.62381,55.129721 270.97036,49.487797 273.82345,46.634709 C 274.86641,45.591759 275.75351,45.409406 276.20788,46.144578 C 279.56741,51.580413 280.39961,111.48929 277.46929,136.95191 C 268.90775,211.34621 239.42793,273.49254 190.34984,320.60814 C 176.22154,334.1715 157.65184,348.40141 154.0803,348.40141 C 152.99352,348.40141 149.02147,346.24284 145.25353,343.60459 z M 161.66479,341.25248 C 177.95312,329.7562 196.47897,312.34481 210.68294,295.18308 L 217.82832,286.54978 L 185.93503,254.65649 L 154.04175,222.7632 L 122.27355,254.51565 L 90.505335,286.26809 L 95.925194,293.29012 C 105.00825,305.05821 128.4521,327.86554 141.09099,337.22964 C 147.66496,342.10026 153.44278,346.0853 153.93057,346.0853 C 154.41836,346.0853 157.89876,343.91053 161.66479,341.25248 z M 108.57745,192.93834 L 154.03646,147.49026 L 199.75333,193.19615 C 228.37152,221.80746 245.86473,238.48076 246.52504,237.77568 C 248.31707,235.86215 255.41541,218.7422 259.7898,205.78338 C 266.06372,187.19732 270.03191,170.47906 273.97227,146.03171 L 274.57889,142.26803 L 154.0109,142.26803 C 39.743035,142.26803 33.47214,142.37392 34.002613,144.29462 C 34.310459,145.40925 34.900155,148.92684 35.313047,152.11148 C 36.598555,162.02662 42.606437,187.75886 46.430882,199.73007 C 52.02781,217.24946 60.657984,238.3864 62.214192,238.3864 C 62.711537,238.3864 83.575002,217.93478 108.57745,192.93834 z"
     id="path3385"
     sodipodi:nodetypes="csscccssssssssssscccccccccssccccsscccssssc" />
  <path
     style="fill:#f9a033;fill-opacity:1;fill-rule:nonzero;stroke:#f9a033;stroke-width:0.61267607999999996;stroke-opacity:1"
     d="M 59.460709,233.13127 C 49.264683,210.75757 41.018278,182.97656 35.910349,153.79332 L 34.198893,144.01513 L 35.489348,143.5399 C 36.199097,143.27854 90.222114,142.9687 155.5405,142.85138 L 274.3012,142.63807 L 273.96061,144.35036 C 273.77326,145.29211 272.90154,150.19821 272.02345,155.25279 C 267.83318,179.37321 262.62745,198.25727 254.28078,219.61574 C 250.15723,230.16741 246.92285,237.04504 246.08416,237.04504 C 245.02068,237.04504 234.25436,226.68602 194.74754,187.65025 C 172.45093,165.61951 153.99593,147.59434 153.73645,147.59434 C 153.47694,147.59434 132.94735,167.8586 108.11511,192.62603 C 83.282884,217.39346 62.641105,237.65772 62.244526,237.65772 C 61.847947,237.65772 60.595226,235.62081 59.460703,233.13127 L 59.460709,233.13127 z"
     id="path3388" />
  <path
     style="fill:#f9a033;fill-opacity:1;fill-rule:nonzero;stroke:#f9a033;stroke-width:0.61267608;stroke-opacity:1"
     d="M 146.4184,340.60939 C 134.64803,332.18373 122.17085,321.03238 108.34195,306.57895 C 100.15322,298.02038 91.289433,287.52961 91.261458,286.36323 C 91.253322,286.02505 105.37754,271.61949 122.64856,254.35091 L 154.05041,222.95349 L 185.80748,254.71497 L 217.56455,286.47645 L 214.01432,290.70969 C 198.70433,308.96512 182.32225,325.14095 168.51094,335.6402 C 161.20533,341.19389 154.87322,345.4887 153.99075,345.4887 C 153.57493,345.4887 150.16736,343.29301 146.41842,340.60939 L 146.4184,340.60939 z"
     id="path3899" />
</svg>
